<?xml version="1.0" encoding="UTF-8"?>
<svg width="40" height="40" viewBox="0 0 40 40" xmlns="http://www.w3.org/2000/svg">
    <path d="M20 5C22.5 5 24.5 6 26 7.5L29 10.5C30.5 12 31.5 14 32 16.5C32.5 19 32.5 21 32 23.5C31.5 26 30.5 28 29 29.5L26 32.5C24.5 34 22.5 35 20 35C17.5 35 15.5 34 14 32.5L11 29.5C9.5 28 8.5 26 8 23.5C7.5 21 7.5 19 8 16.5C8.5 14 9.5 12 11 10.5L14 7.5C15.5 6 17.5 5 20 5ZM20 9C18.5 9 17.25 9.5 16.25 10.5L14 12.75C13 13.75 12.5 15 12.5 16.5C12.5 18 13 19.25 14 20.25L16.25 22.5C17.25 23.5 18.5 24 20 24C21.5 24 22.75 23.5 23.75 22.5L26 20.25C27 19.25 27.5 18 27.5 16.5C27.5 15 27 13.75 26 12.75L23.75 10.5C22.75 9.5 21.5 9 20 9Z" 
        fill="black"/>
</svg>
